<?xml version="1.0" encoding="UTF-8" standalone="no"?>
<!DOCTYPE svg PUBLIC "-//W3C//DTD SVG 1.1//EN"
 "http://www.w3.org/Graphics/SVG/1.1/DTD/svg11.dtd">
<!-- Generated by graphviz version 2.38.0 (20140413.2041)
 -->
<!-- Title: controllers_diagram Pages: 1 -->
<svg width="628pt" height="607pt"
 viewBox="0.00 0.00 627.71 607.00" xmlns="http://www.w3.org/2000/svg" xmlns:xlink="http://www.w3.org/1999/xlink">
<g id="graph0" class="graph" transform="scale(1 1) rotate(0) translate(243.89 363.5)">
<title>controllers_diagram</title>
<polygon fill="white" stroke="none" points="-243.89,243.5 -243.89,-363.5 383.821,-363.5 383.821,243.5 -243.89,243.5"/>
<!-- _diagram_info -->
<g id="node1" class="node"><title>_diagram_info</title>
<text text-anchor="start" x="8.31226" y="148.9" font-family="Times,serif" font-size="13.00">Controllers diagram</text>
<text text-anchor="start" x="8.31226" y="161.9" font-family="Times,serif" font-size="13.00">Date: Jan 08 2015 &#45; 15:15</text>
<text text-anchor="start" x="8.31226" y="174.9" font-family="Times,serif" font-size="13.00">Migration version: 20150106161543</text>
<text text-anchor="start" x="8.31226" y="187.9" font-family="Times,serif" font-size="13.00">Generated by RailRoady 1.3.0</text>
<text text-anchor="start" x="8.31226" y="200.9" font-family="Times,serif" font-size="13.00">http://railroady.prestonlee.com</text>
</g>
<!-- AccountActivationsController -->
<g id="node2" class="node"><title>AccountActivationsController</title>
<path fill="none" stroke="black" d="M172.241,-161C172.241,-161 333.759,-161 333.759,-161 339.759,-161 345.759,-167 345.759,-173 345.759,-173 345.759,-239 345.759,-239 345.759,-245 339.759,-251 333.759,-251 333.759,-251 172.241,-251 172.241,-251 166.241,-251 160.241,-245 160.241,-239 160.241,-239 160.241,-173 160.241,-173 160.241,-167 166.241,-161 172.241,-161"/>
<text text-anchor="middle" x="253" y="-235.8" font-family="Times,serif" font-size="14.00">AccountActivationsController</text>
<polyline fill="none" stroke="black" points="160.241,-229 345.759,-229 "/>
<text text-anchor="start" x="168.241" y="-213.8" font-family="Times,serif" font-size="14.00">edit</text>
<polyline fill="none" stroke="black" points="160.241,-207 345.759,-207 "/>
<polyline fill="none" stroke="black" points="160.241,-183 345.759,-183 "/>
<text text-anchor="start" x="168.241" y="-167.8" font-family="Times,serif" font-size="14.00">_layout</text>
</g>
<!-- ApplicationController -->
<g id="node3" class="node"><title>ApplicationController</title>
<path fill="none" stroke="black" d="M252.179,79C252.179,79 367.821,79 367.821,79 373.821,79 379.821,73 379.821,67 379.821,67 379.821,-15 379.821,-15 379.821,-21 373.821,-27 367.821,-27 367.821,-27 252.179,-27 252.179,-27 246.179,-27 240.179,-21 240.179,-15 240.179,-15 240.179,67 240.179,67 240.179,73 246.179,79 252.179,79"/>
<text text-anchor="middle" x="310" y="-11.8" font-family="Times,serif" font-size="14.00">ApplicationController</text>
<polyline fill="none" stroke="black" points="240.179,-5 379.821,-5 "/>
<polyline fill="none" stroke="black" points="240.179,19 379.821,19 "/>
<polyline fill="none" stroke="black" points="240.179,43 379.821,43 "/>
<text text-anchor="start" x="248.179" y="58.2" font-family="Times,serif" font-size="14.00">_layout</text>
<text text-anchor="start" x="248.179" y="72.2" font-family="Times,serif" font-size="14.00">logged_in_user</text>
</g>
<!-- MicropostsController -->
<g id="node4" class="node"><title>MicropostsController</title>
<path fill="none" stroke="black" d="M-68.2725,-97C-68.2725,-97 44.2725,-97 44.2725,-97 50.2725,-97 56.2725,-103 56.2725,-109 56.2725,-109 56.2725,-217 56.2725,-217 56.2725,-223 50.2725,-229 44.2725,-229 44.2725,-229 -68.2725,-229 -68.2725,-229 -74.2725,-229 -80.2725,-223 -80.2725,-217 -80.2725,-217 -80.2725,-109 -80.2725,-109 -80.2725,-103 -74.2725,-97 -68.2725,-97"/>
<text text-anchor="middle" x="-12" y="-213.8" font-family="Times,serif" font-size="14.00">MicropostsController</text>
<polyline fill="none" stroke="black" points="-80.2725,-207 56.2725,-207 "/>
<text text-anchor="start" x="-72.2725" y="-191.8" font-family="Times,serif" font-size="14.00">create</text>
<text text-anchor="start" x="-72.2725" y="-177.8" font-family="Times,serif" font-size="14.00">destroy</text>
<polyline fill="none" stroke="black" points="-80.2725,-171 56.2725,-171 "/>
<polyline fill="none" stroke="black" points="-80.2725,-147 56.2725,-147 "/>
<text text-anchor="start" x="-72.2725" y="-131.8" font-family="Times,serif" font-size="14.00">_layout</text>
<text text-anchor="start" x="-72.2725" y="-117.8" font-family="Times,serif" font-size="14.00">correct_user</text>
<text text-anchor="start" x="-72.2725" y="-103.8" font-family="Times,serif" font-size="14.00">micropost_params</text>
</g>
<!-- PasswordResetsController -->
<g id="node5" class="node"><title>PasswordResetsController</title>
<path fill="none" stroke="black" d="M-83.8828,95C-83.8828,95 55.8828,95 55.8828,95 61.8828,95 67.8828,89 67.8828,83 67.8828,83 67.8828,-53 67.8828,-53 67.8828,-59 61.8828,-65 55.8828,-65 55.8828,-65 -83.8828,-65 -83.8828,-65 -89.8828,-65 -95.8828,-59 -95.8828,-53 -95.8828,-53 -95.8828,83 -95.8828,83 -95.8828,89 -89.8828,95 -83.8828,95"/>
<text text-anchor="middle" x="-14" y="-49.8" font-family="Times,serif" font-size="14.00">PasswordResetsController</text>
<polyline fill="none" stroke="black" points="-95.8828,-43 67.8828,-43 "/>
<text text-anchor="start" x="-87.8828" y="-27.8" font-family="Times,serif" font-size="14.00">create</text>
<text text-anchor="start" x="-87.8828" y="-13.8" font-family="Times,serif" font-size="14.00">edit</text>
<text text-anchor="start" x="-87.8828" y="0.2" font-family="Times,serif" font-size="14.00">new</text>
<text text-anchor="start" x="-87.8828" y="14.2" font-family="Times,serif" font-size="14.00">update</text>
<polyline fill="none" stroke="black" points="-95.8828,21 67.8828,21 "/>
<polyline fill="none" stroke="black" points="-95.8828,45 67.8828,45 "/>
<text text-anchor="start" x="-87.8828" y="60.2" font-family="Times,serif" font-size="14.00">_layout</text>
<text text-anchor="start" x="-87.8828" y="74.2" font-family="Times,serif" font-size="14.00">get_user</text>
<text text-anchor="start" x="-87.8828" y="88.2" font-family="Times,serif" font-size="14.00">user_params</text>
</g>
<!-- SessionsController -->
<g id="node6" class="node"><title>SessionsController</title>
<path fill="none" stroke="black" d="M-227.89,-241C-227.89,-241 -130.11,-241 -130.11,-241 -124.11,-241 -118.11,-247 -118.11,-253 -118.11,-253 -118.11,-347 -118.11,-347 -118.11,-353 -124.11,-359 -130.11,-359 -130.11,-359 -227.89,-359 -227.89,-359 -233.89,-359 -239.89,-353 -239.89,-347 -239.89,-347 -239.89,-253 -239.89,-253 -239.89,-247 -233.89,-241 -227.89,-241"/>
<text text-anchor="middle" x="-179" y="-343.8" font-family="Times,serif" font-size="14.00">SessionsController</text>
<polyline fill="none" stroke="black" points="-239.89,-337 -118.11,-337 "/>
<text text-anchor="start" x="-231.89" y="-321.8" font-family="Times,serif" font-size="14.00">create</text>
<text text-anchor="start" x="-231.89" y="-307.8" font-family="Times,serif" font-size="14.00">destroy</text>
<text text-anchor="start" x="-231.89" y="-293.8" font-family="Times,serif" font-size="14.00">new</text>
<polyline fill="none" stroke="black" points="-239.89,-287 -118.11,-287 "/>
<polyline fill="none" stroke="black" points="-239.89,-263 -118.11,-263 "/>
<text text-anchor="start" x="-231.89" y="-247.8" font-family="Times,serif" font-size="14.00">_layout</text>
</g>
<!-- StaticPagesController -->
<g id="node7" class="node"><title>StaticPagesController</title>
<path fill="none" stroke="black" d="M251.955,239C251.955,239 366.045,239 366.045,239 372.045,239 378.045,233 378.045,227 378.045,227 378.045,119 378.045,119 378.045,113 372.045,107 366.045,107 366.045,107 251.955,107 251.955,107 245.955,107 239.955,113 239.955,119 239.955,119 239.955,227 239.955,227 239.955,233 245.955,239 251.955,239"/>
<text text-anchor="middle" x="309" y="122.2" font-family="Times,serif" font-size="14.00">StaticPagesController</text>
<polyline fill="none" stroke="black" points="239.955,129 378.045,129 "/>
<text text-anchor="start" x="247.955" y="144.2" font-family="Times,serif" font-size="14.00">about</text>
<text text-anchor="start" x="247.955" y="158.2" font-family="Times,serif" font-size="14.00">contact</text>
<text text-anchor="start" x="247.955" y="172.2" font-family="Times,serif" font-size="14.00">help</text>
<text text-anchor="start" x="247.955" y="186.2" font-family="Times,serif" font-size="14.00">home</text>
<polyline fill="none" stroke="black" points="239.955,193 378.045,193 "/>
<polyline fill="none" stroke="black" points="239.955,217 378.045,217 "/>
<text text-anchor="start" x="247.955" y="232.2" font-family="Times,serif" font-size="14.00">_layout</text>
</g>
<!-- UsersController -->
<g id="node8" class="node"><title>UsersController</title>
<path fill="none" stroke="black" d="M108.286,95C108.286,95 189.714,95 189.714,95 195.714,95 201.714,89 201.714,83 201.714,83 201.714,-109 201.714,-109 201.714,-115 195.714,-121 189.714,-121 189.714,-121 108.286,-121 108.286,-121 102.286,-121 96.2861,-115 96.2861,-109 96.2861,-109 96.2861,83 96.2861,83 96.2861,89 102.286,95 108.286,95"/>
<text text-anchor="middle" x="149" y="-105.8" font-family="Times,serif" font-size="14.00">UsersController</text>
<polyline fill="none" stroke="black" points="96.2861,-99 201.714,-99 "/>
<text text-anchor="start" x="104.286" y="-83.8" font-family="Times,serif" font-size="14.00">admin_user</text>
<text text-anchor="start" x="104.286" y="-69.8" font-family="Times,serif" font-size="14.00">correct_user</text>
<text text-anchor="start" x="104.286" y="-55.8" font-family="Times,serif" font-size="14.00">create</text>
<text text-anchor="start" x="104.286" y="-41.8" font-family="Times,serif" font-size="14.00">destroy</text>
<text text-anchor="start" x="104.286" y="-27.8" font-family="Times,serif" font-size="14.00">edit</text>
<text text-anchor="start" x="104.286" y="-13.8" font-family="Times,serif" font-size="14.00">index</text>
<text text-anchor="start" x="104.286" y="0.2" font-family="Times,serif" font-size="14.00">new</text>
<text text-anchor="start" x="104.286" y="14.2" font-family="Times,serif" font-size="14.00">show</text>
<text text-anchor="start" x="104.286" y="28.2" font-family="Times,serif" font-size="14.00">update</text>
<text text-anchor="start" x="104.286" y="42.2" font-family="Times,serif" font-size="14.00">user_params</text>
<polyline fill="none" stroke="black" points="96.2861,49 201.714,49 "/>
<polyline fill="none" stroke="black" points="96.2861,73 201.714,73 "/>
<text text-anchor="start" x="104.286" y="88.2" font-family="Times,serif" font-size="14.00">_layout</text>
</g>
</g>
</svg>
