<?xml version="1.0" encoding="UTF-8" standalone="no"?>
<!DOCTYPE svg PUBLIC "-//W3C//DTD SVG 1.1//EN"
 "http://www.w3.org/Graphics/SVG/1.1/DTD/svg11.dtd">
<!-- Generated by graphviz version 2.38.0 (20140413.2041)
 -->
<!-- Title: models_diagram Pages: 1 -->
<svg width="547pt" height="386pt"
 viewBox="0.00 0.00 547.45 386.00" xmlns="http://www.w3.org/2000/svg" xmlns:xlink="http://www.w3.org/1999/xlink">
<g id="graph0" class="graph" transform="scale(1 1) rotate(0) translate(4 382)">
<title>models_diagram</title>
<polygon fill="white" stroke="none" points="-4,4 -4,-382 543.447,-382 543.447,4 -4,4"/>
<!-- _diagram_info -->
<g id="node1" class="node"><title>_diagram_info</title>
<text text-anchor="start" x="8" y="-293.6" font-family="Times,serif" font-size="13.00">Models diagram</text>
<text text-anchor="start" x="8" y="-280.6" font-family="Times,serif" font-size="13.00">Date: Jan 08 2015 &#45; 15:15</text>
<text text-anchor="start" x="8" y="-267.6" font-family="Times,serif" font-size="13.00">Migration version: 20150106161543</text>
<text text-anchor="start" x="8" y="-254.6" font-family="Times,serif" font-size="13.00">Generated by RailRoady 1.3.0</text>
<text text-anchor="start" x="8" y="-241.6" font-family="Times,serif" font-size="13.00">http://railroady.prestonlee.com</text>
</g>
<!-- Micropost -->
<g id="node2" class="node"><title>Micropost</title>
<path fill="none" stroke="black" d="M214.182,-0.5C214.182,-0.5 323.193,-0.5 323.193,-0.5 329.193,-0.5 335.193,-6.5 335.193,-12.5 335.193,-12.5 335.193,-102.5 335.193,-102.5 335.193,-108.5 329.193,-114.5 323.193,-114.5 323.193,-114.5 214.182,-114.5 214.182,-114.5 208.182,-114.5 202.182,-108.5 202.182,-102.5 202.182,-102.5 202.182,-12.5 202.182,-12.5 202.182,-6.5 208.182,-0.5 214.182,-0.5"/>
<text text-anchor="middle" x="268.688" y="-99.3" font-family="Times,serif" font-size="14.00">Micropost</text>
<polyline fill="none" stroke="black" points="202.182,-92.5 335.193,-92.5 "/>
<text text-anchor="start" x="210.182" y="-77.3" font-family="Times,serif" font-size="14.00">id :integer</text>
<text text-anchor="start" x="210.182" y="-63.3" font-family="Times,serif" font-size="14.00">content :text</text>
<text text-anchor="start" x="210.182" y="-49.3" font-family="Times,serif" font-size="14.00">user_id :integer</text>
<text text-anchor="start" x="210.182" y="-35.3" font-family="Times,serif" font-size="14.00">created_at :datetime</text>
<text text-anchor="start" x="210.182" y="-21.3" font-family="Times,serif" font-size="14.00">updated_at :datetime</text>
<text text-anchor="start" x="210.182" y="-7.3" font-family="Times,serif" font-size="14.00">picture :string</text>
</g>
<!-- Relationship -->
<g id="node3" class="node"><title>Relationship</title>
<path fill="none" stroke="black" d="M373.182,-7.5C373.182,-7.5 482.193,-7.5 482.193,-7.5 488.193,-7.5 494.193,-13.5 494.193,-19.5 494.193,-19.5 494.193,-95.5 494.193,-95.5 494.193,-101.5 488.193,-107.5 482.193,-107.5 482.193,-107.5 373.182,-107.5 373.182,-107.5 367.182,-107.5 361.182,-101.5 361.182,-95.5 361.182,-95.5 361.182,-19.5 361.182,-19.5 361.182,-13.5 367.182,-7.5 373.182,-7.5"/>
<text text-anchor="middle" x="427.688" y="-92.3" font-family="Times,serif" font-size="14.00">Relationship</text>
<polyline fill="none" stroke="black" points="361.182,-85.5 494.193,-85.5 "/>
<text text-anchor="start" x="369.182" y="-70.3" font-family="Times,serif" font-size="14.00">id :integer</text>
<text text-anchor="start" x="369.182" y="-56.3" font-family="Times,serif" font-size="14.00">follower_id :integer</text>
<text text-anchor="start" x="369.182" y="-42.3" font-family="Times,serif" font-size="14.00">followed_id :integer</text>
<text text-anchor="start" x="369.182" y="-28.3" font-family="Times,serif" font-size="14.00">created_at :datetime</text>
<text text-anchor="start" x="369.182" y="-14.3" font-family="Times,serif" font-size="14.00">updated_at :datetime</text>
</g>
<!-- User -->
<g id="node4" class="node"><title>User</title>
<path fill="none" stroke="black" d="M237.455,-165.5C237.455,-165.5 365.921,-165.5 365.921,-165.5 371.921,-165.5 377.921,-171.5 377.921,-177.5 377.921,-177.5 377.921,-365.5 377.921,-365.5 377.921,-371.5 371.921,-377.5 365.921,-377.5 365.921,-377.5 237.455,-377.5 237.455,-377.5 231.455,-377.5 225.455,-371.5 225.455,-365.5 225.455,-365.5 225.455,-177.5 225.455,-177.5 225.455,-171.5 231.455,-165.5 237.455,-165.5"/>
<text text-anchor="middle" x="301.688" y="-362.3" font-family="Times,serif" font-size="14.00">User</text>
<polyline fill="none" stroke="black" points="225.455,-355.5 377.921,-355.5 "/>
<text text-anchor="start" x="233.455" y="-340.3" font-family="Times,serif" font-size="14.00">id :integer</text>
<text text-anchor="start" x="233.455" y="-326.3" font-family="Times,serif" font-size="14.00">name :string</text>
<text text-anchor="start" x="233.455" y="-312.3" font-family="Times,serif" font-size="14.00">email :string</text>
<text text-anchor="start" x="233.455" y="-298.3" font-family="Times,serif" font-size="14.00">created_at :datetime</text>
<text text-anchor="start" x="233.455" y="-284.3" font-family="Times,serif" font-size="14.00">updated_at :datetime</text>
<text text-anchor="start" x="233.455" y="-270.3" font-family="Times,serif" font-size="14.00">password_digest :string</text>
<text text-anchor="start" x="233.455" y="-256.3" font-family="Times,serif" font-size="14.00">remember_digest :string</text>
<text text-anchor="start" x="233.455" y="-242.3" font-family="Times,serif" font-size="14.00">admin :boolean</text>
<text text-anchor="start" x="233.455" y="-228.3" font-family="Times,serif" font-size="14.00">activation_digest :string</text>
<text text-anchor="start" x="233.455" y="-214.3" font-family="Times,serif" font-size="14.00">activated :boolean</text>
<text text-anchor="start" x="233.455" y="-200.3" font-family="Times,serif" font-size="14.00">activated_at :datetime</text>
<text text-anchor="start" x="233.455" y="-186.3" font-family="Times,serif" font-size="14.00">reset_digest :string</text>
<text text-anchor="start" x="233.455" y="-172.3" font-family="Times,serif" font-size="14.00">reset_sent_at :datetime</text>
</g>
<!-- User&#45;&gt;Micropost -->
<g id="edge1" class="edge"><title>User&#45;&gt;Micropost</title>
<path fill="none" stroke="#051fc0" d="M284.057,-157.237C282.338,-146.191 280.635,-135.25 279.023,-124.898"/>
<ellipse fill="none" stroke="#051fc0" cx="284.717" cy="-161.479" rx="4.00001" ry="4.00001"/>
<polygon fill="#051fc0" stroke="#051fc0" points="278.983,-124.641 281.892,-114.068 278.214,-119.7 277.445,-114.76 277.445,-114.76 277.445,-114.76 278.214,-119.7 272.999,-115.452 278.983,-124.641 278.983,-124.641"/>
</g>
<!-- User&#45;&gt;Relationship -->
<g id="edge2" class="edge"><title>User&#45;&gt;Relationship</title>
<path fill="none" stroke="#ac5e39" d="M291.83,-157.292C294.238,-148.684 297.765,-140.459 302.722,-133 313.955,-116.098 326.891,-124.755 344.688,-115 347.196,-113.625 349.723,-112.195 352.257,-110.721"/>
<ellipse fill="none" stroke="#ac5e39" cx="290.85" cy="-161.402" rx="4.00001" ry="4.00001"/>
<polygon fill="#ac5e39" stroke="#ac5e39" points="352.297,-110.697 363.189,-109.426 356.588,-108.13 360.879,-105.564 360.879,-105.564 360.879,-105.564 356.588,-108.13 358.569,-101.702 352.297,-110.697 352.297,-110.697"/>
<text text-anchor="middle" x="358.671" y="-135.8" font-family="Times,serif" font-size="14.00">active_relationships</text>
</g>
<!-- User&#45;&gt;Relationship -->
<g id="edge3" class="edge"><title>User&#45;&gt;Relationship</title>
<path fill="none" stroke="#aca570" d="M383.388,-194.863C395.547,-180.077 406.669,-163.883 414.688,-147 418.985,-137.952 421.943,-127.846 423.962,-117.788"/>
<ellipse fill="none" stroke="#aca570" cx="380.698" cy="-198.054" rx="4.00002" ry="4.00002"/>
<polygon fill="#aca570" stroke="#aca570" points="423.987,-117.643 430.119,-108.552 424.835,-112.716 425.684,-107.788 425.684,-107.788 425.684,-107.788 424.835,-112.716 421.249,-107.025 423.987,-117.643 423.987,-117.643"/>
<text text-anchor="middle" x="479.567" y="-135.8" font-family="Times,serif" font-size="14.00">passive_relationships</text>
</g>
<!-- User&#45;&gt;User -->
<g id="edge4" class="edge"><title>User&#45;&gt;User</title>
<path fill="none" stroke="#d846f9" d="M388.131,-279.734C393.011,-277.742 395.921,-274.997 395.921,-271.5 395.921,-268.003 393.011,-265.258 388.131,-263.266"/>
<polygon fill="#d846f9" stroke="#d846f9" points="387.886,-279.799 377.065,-278.027 383.055,-281.087 378.224,-282.375 378.224,-282.375 378.224,-282.375 383.055,-281.087 379.384,-286.723 387.886,-279.799 387.886,-279.799"/>
<polygon fill="#d846f9" stroke="#d846f9" points="387.886,-263.201 379.384,-256.277 383.055,-261.913 378.224,-260.625 378.224,-260.625 378.224,-260.625 383.055,-261.913 377.065,-264.973 387.886,-263.201 387.886,-263.201"/>
<text text-anchor="middle" x="423.141" y="-267.3" font-family="Times,serif" font-size="14.00">following</text>
</g>
<!-- User&#45;&gt;User -->
<g id="edge5" class="edge"><title>User&#45;&gt;User</title>
<path fill="none" stroke="#f345e0" d="M388.492,-295.869C421.649,-296.133 450.362,-288.01 450.362,-271.5 450.362,-254.99 421.649,-246.867 388.492,-247.131"/>
<polygon fill="#f345e0" stroke="#f345e0" points="388.08,-295.855 378.237,-291.02 383.083,-295.686 378.086,-295.518 378.086,-295.518 378.086,-295.518 383.083,-295.686 377.934,-300.015 388.08,-295.855 388.08,-295.855"/>
<polygon fill="#f345e0" stroke="#f345e0" points="388.08,-247.145 377.934,-242.985 383.083,-247.314 378.086,-247.482 378.086,-247.482 378.086,-247.482 383.083,-247.314 378.237,-251.98 388.08,-247.145 388.08,-247.145"/>
<text text-anchor="middle" x="476.8" y="-267.3" font-family="Times,serif" font-size="14.00">followers</text>
</g>
</g>
</svg>
