<?xml version="1.0" encoding="UTF-8" standalone="no"?>
<!DOCTYPE svg PUBLIC "-//W3C//DTD SVG 1.1//EN"
 "http://www.w3.org/Graphics/SVG/1.1/DTD/svg11.dtd">
<!-- Generated by graphviz version 2.38.0 (20140413.2041)
 -->
<!-- Title: models_diagram Pages: 1 -->
<svg width="497pt" height="167pt"
 viewBox="0.00 0.00 497.45 167.00" xmlns="http://www.w3.org/2000/svg" xmlns:xlink="http://www.w3.org/1999/xlink">
<g id="graph0" class="graph" transform="scale(1 1) rotate(0) translate(4 163)">
<title>models_diagram</title>
<polygon fill="white" stroke="none" points="-4,4 -4,-163 493.447,-163 493.447,4 -4,4"/>
<!-- _diagram_info -->
<g id="node1" class="node"><title>_diagram_info</title>
<text text-anchor="start" x="8" y="-144.6" font-family="Times,serif" font-size="13.00">Models diagram</text>
<text text-anchor="start" x="8" y="-131.6" font-family="Times,serif" font-size="13.00">Date: Jan 08 2015 &#45; 15:15</text>
<text text-anchor="start" x="8" y="-118.6" font-family="Times,serif" font-size="13.00">Migration version: 20150106161543</text>
<text text-anchor="start" x="8" y="-105.6" font-family="Times,serif" font-size="13.00">Generated by RailRoady 1.3.0</text>
<text text-anchor="start" x="8" y="-92.6" font-family="Times,serif" font-size="13.00">http://railroady.prestonlee.com</text>
</g>
<!-- Micropost -->
<g id="node2" class="node"><title>Micropost</title>
<ellipse fill="none" stroke="black" cx="219.688" cy="-18" rx="46.4218" ry="18"/>
<text text-anchor="middle" x="219.688" y="-13.8" font-family="Times,serif" font-size="14.00">Micropost</text>
</g>
<!-- Relationship -->
<g id="node3" class="node"><title>Relationship</title>
<ellipse fill="none" stroke="black" cx="362.688" cy="-18" rx="54.6248" ry="18"/>
<text text-anchor="middle" x="362.688" y="-13.8" font-family="Times,serif" font-size="14.00">Relationship</text>
</g>
<!-- User -->
<g id="node4" class="node"><title>User</title>
<ellipse fill="none" stroke="black" cx="252.688" cy="-122.5" rx="27" ry="18"/>
<text text-anchor="middle" x="252.688" y="-118.3" font-family="Times,serif" font-size="14.00">User</text>
</g>
<!-- User&#45;&gt;Micropost -->
<g id="edge1" class="edge"><title>User&#45;&gt;Micropost</title>
<path fill="none" stroke="#03956a" d="M243.669,-97.1319C240.398,-88.0325 236.755,-77.5839 233.688,-68 231.441,-60.9799 229.174,-53.3394 227.137,-46.2258"/>
<ellipse fill="none" stroke="#03956a" cx="245.06" cy="-100.965" rx="4.00001" ry="4.00001"/>
<polygon fill="#03956a" stroke="#03956a" points="227.057,-45.9404 228.68,-35.0953 225.703,-41.1273 224.348,-36.3142 224.348,-36.3142 224.348,-36.3142 225.703,-41.1273 220.017,-37.5331 227.057,-45.9404 227.057,-45.9404"/>
</g>
<!-- User&#45;&gt;Relationship -->
<g id="edge2" class="edge"><title>User&#45;&gt;Relationship</title>
<path fill="none" stroke="#4d6351" d="M246.447,-96.3681C244.539,-82.5873 244.882,-65.9316 253.722,-54 260.631,-44.6754 283.922,-36.5731 307.207,-30.5191"/>
<ellipse fill="none" stroke="#4d6351" cx="247.182" cy="-100.569" rx="4.00001" ry="4.00001"/>
<polygon fill="#4d6351" stroke="#4d6351" points="307.433,-30.4631 318.223,-32.4197 312.286,-29.2577 317.138,-28.0524 317.138,-28.0524 317.138,-28.0524 312.286,-29.2577 316.053,-23.6851 307.433,-30.4631 307.433,-30.4631"/>
<text text-anchor="middle" x="310.671" y="-56.8" font-family="Times,serif" font-size="14.00">active_relationships</text>
</g>
<!-- User&#45;&gt;Relationship -->
<g id="edge3" class="edge"><title>User&#45;&gt;Relationship</title>
<path fill="none" stroke="#2cd166" d="M286.544,-115.546C313.127,-108.899 348.434,-95.2585 365.688,-68 369.762,-61.5637 370.625,-53.6491 370.024,-46.0729"/>
<ellipse fill="none" stroke="#2cd166" cx="282.5" cy="-116.486" rx="4.00001" ry="4.00001"/>
<polygon fill="#2cd166" stroke="#2cd166" points="370.013,-46.0007 372.904,-35.423 369.236,-41.0614 368.459,-36.1221 368.459,-36.1221 368.459,-36.1221 369.236,-41.0614 364.014,-36.8211 370.013,-46.0007 370.013,-46.0007"/>
<text text-anchor="middle" x="429.567" y="-56.8" font-family="Times,serif" font-size="14.00">passive_relationships</text>
</g>
<!-- User&#45;&gt;User -->
<g id="edge4" class="edge"><title>User&#45;&gt;User</title>
<path fill="none" stroke="#37af96" d="M288.808,-127.587C294.11,-126.786 297.688,-125.09 297.688,-122.5 297.688,-119.91 294.11,-118.214 288.808,-117.413"/>
<polygon fill="#37af96" stroke="#37af96" points="288.572,-127.598 278.362,-123.596 283.578,-127.844 278.584,-128.091 278.584,-128.091 278.584,-128.091 283.578,-127.844 278.805,-132.585 288.572,-127.598 288.572,-127.598"/>
<polygon fill="#37af96" stroke="#37af96" points="288.572,-117.402 278.805,-112.415 283.578,-117.156 278.584,-116.909 278.584,-116.909 278.584,-116.909 283.578,-117.156 278.362,-121.404 288.572,-117.402 288.572,-117.402"/>
<text text-anchor="middle" x="324.908" y="-118.3" font-family="Times,serif" font-size="14.00">following</text>
</g>
<!-- User&#45;&gt;User -->
<g id="edge5" class="edge"><title>User&#45;&gt;User</title>
<path fill="none" stroke="#7f722e" d="M287.242,-132.436C316.822,-135.875 352.129,-132.563 352.129,-122.5 352.129,-112.437 316.822,-109.125 287.242,-112.564"/>
<polygon fill="#7f722e" stroke="#7f722e" points="286.978,-132.397 277.742,-126.486 282.031,-131.667 277.085,-130.938 277.085,-130.938 277.085,-130.938 282.031,-131.667 276.428,-135.389 286.978,-132.397 286.978,-132.397"/>
<polygon fill="#7f722e" stroke="#7f722e" points="286.978,-112.603 276.428,-109.611 282.031,-113.333 277.085,-114.062 277.085,-114.062 277.085,-114.062 282.031,-113.333 277.742,-118.514 286.978,-112.603 286.978,-112.603"/>
<text text-anchor="middle" x="378.567" y="-118.3" font-family="Times,serif" font-size="14.00">followers</text>
</g>
</g>
</svg>
